<svg width="14" height="14" viewBox="0 0 14 14" fill="none" xmlns="http://www.w3.org/2000/svg">
<path id="calendar icon" fill-rule="evenodd" clip-rule="evenodd" d="M13.3636 2.77289H12.227C12.3208 2.53752 12.3704 2.28429 12.3704 2.0233C12.3704 1.48294 12.1599 0.974867 11.7778 0.592624C11.3956 0.210467 10.8876 0 10.3472 0C9.80679 0 9.29871 0.210467 8.91664 0.592624L7 2.50918L5.08336 0.592667C4.70124 0.210467 4.19317 0 3.65281 0C3.11245 0 2.60438 0.210424 2.2221 0.592709C1.6338 1.18113 1.48464 2.04472 1.77393 2.77289H0.636364C0.284921 2.77289 0 3.05781 0 3.40925V12.5001C0 12.8516 0.284921 13.1365 0.636364 13.1365H13.3636C13.7151 13.1365 14 12.8516 14 12.5001V3.40925C14 3.05777 13.7151 2.77289 13.3636 2.77289ZM9.81667 1.49253C9.95841 1.35079 10.1468 1.27273 10.3472 1.27273C10.5476 1.27273 10.736 1.35079 10.8778 1.49253C11.0196 1.63435 11.0977 1.82284 11.0977 2.0233C11.0977 2.22371 11.0196 2.41212 10.8777 2.55398C10.7366 2.69513 10.5484 2.77289 10.348 2.77289L10.3378 2.77281L10.3293 2.77276H8.53644L9.81667 1.49253ZM3.12213 1.49261C2.82961 1.78521 2.82957 2.2613 3.12213 2.55385C3.26336 2.69513 3.45155 2.77289 3.65209 2.77289L3.66227 2.77281L3.67076 2.77276H5.46361L4.18337 1.49257C4.04163 1.35079 3.85318 1.27273 3.65281 1.27273C3.4524 1.27273 3.26395 1.35079 3.12213 1.49261ZM5.46352 4.04562L4.18337 5.32564C3.93485 5.57412 3.93485 5.97707 4.18337 6.22559C4.30763 6.34989 4.4705 6.412 4.63336 6.412C4.79619 6.412 4.9591 6.34985 5.08331 6.22559L7 4.30907L8.91669 6.22563C9.04095 6.34993 9.20381 6.41204 9.36668 6.41204C9.52954 6.41204 9.69241 6.34989 9.81663 6.22563C10.0652 5.97711 10.0651 5.57421 9.81663 5.32568L8.53648 4.04562H12.7273V8.22742H1.27273V4.04562H5.46352ZM1.27273 9.50015V11.8638H12.7273V9.50015H1.27273Z" fill="#079FC2"/>
</svg>
