<svg width="17" height="15" viewBox="0 0 17 15" fill="none" xmlns="http://www.w3.org/2000/svg">
<g id="calendar">
<path id="Shape" fill-rule="evenodd" clip-rule="evenodd" d="M1.21043 14.7829H15.966C16.2805 14.7829 16.5267 14.5367 16.5267 14.2222V1.70938C16.5267 1.39485 16.2805 1.14869 15.966 1.14869H13.1899V0.670059C13.1899 0.355529 12.9438 0.109375 12.6292 0.109375C12.3147 0.109375 12.0685 0.355529 12.0685 0.670059V1.14869H5.20359V0.670059C5.20359 0.355529 4.95743 0.109375 4.6429 0.109375C4.32837 0.109375 4.08222 0.355529 4.08222 0.670059V1.14869H1.21043C0.895896 1.14869 0.649742 1.39485 0.649742 1.70938V14.2359C0.649742 14.5367 0.909571 14.7829 1.21043 14.7829ZM1.77111 2.27006H4.08222V2.57091C4.08222 2.88544 4.32837 3.1316 4.6429 3.1316C4.95743 3.1316 5.20359 2.88544 5.20359 2.57091V2.27006H12.0685V2.57091C12.0685 2.88544 12.3147 3.1316 12.6292 3.1316C12.9438 3.1316 13.1899 2.88544 13.1899 2.57091V2.27006H15.419V3.71963H1.77111V2.27006ZM15.4053 4.841H1.77111V13.6752H15.4053V4.841Z" fill="#079FC2"/>
<path id="Shape_2" d="M12.6292 7.41199H4.56085C4.24632 7.41199 4.00017 7.65814 4.00017 7.97267C4.00017 8.2872 4.24632 8.53335 4.56085 8.53335H12.6292C12.9438 8.53335 13.1899 8.2872 13.1899 7.97267C13.1899 7.65814 12.9438 7.41199 12.6292 7.41199Z" fill="#079FC2"/>
<path id="Shape_3" d="M8.59504 10.1196H4.56085C4.24632 10.1196 4.00017 10.3658 4.00017 10.6803C4.00017 10.9948 4.24632 11.241 4.56085 11.241H8.59504C8.90957 11.241 9.15572 10.9948 9.15572 10.6803C9.15572 10.3658 8.90957 10.1196 8.59504 10.1196Z" fill="#079FC2"/>
</g>
</svg>
