<svg width="13" height="13" viewBox="0 0 13 13" fill="none" xmlns="http://www.w3.org/2000/svg">
<g id="close icon">
<mask id="path-1-inside-1" fill="white">
<path fill-rule="evenodd" clip-rule="evenodd" d="M5.81473 6.74599L0.342636 1.06681L0 0.711206L0.685272 0L1.02791 0.355603L6.5 6.03478L11.9721 0.355603L12.3147 0L13 0.711206L12.6574 1.06681L7.18527 6.74599L12.1833 11.9332L12.526 12.2888L11.8407 13L11.4981 12.6444L6.5 7.45719L1.50194 12.6444L1.1593 13L0.474031 12.2888L0.816668 11.9332L5.81473 6.74599Z"/>
</mask>
<path d="M0.342636 1.06681L-0.377478 1.76066H-0.377478L0.342636 1.06681ZM5.81473 6.74599L6.53484 7.43984L7.2034 6.74599L6.53484 6.05213L5.81473 6.74599ZM0 0.711206L-0.720114 0.0173498L-1.38867 0.711206L-0.720114 1.40506L0 0.711206ZM0.685272 0L1.40539 -0.693856L0.685272 -1.44122L-0.0348418 -0.693856L0.685272 0ZM1.02791 0.355603L0.307794 1.04946H0.307794L1.02791 0.355603ZM6.5 6.03478L5.77989 6.72864L6.5 7.476L7.22011 6.72864L6.5 6.03478ZM11.9721 0.355603L12.6922 1.04946L11.9721 0.355603ZM12.3147 0L13.0348 -0.693856L12.3147 -1.44122L11.5946 -0.693856L12.3147 0ZM13 0.711206L13.7201 1.40506L14.3887 0.711206L13.7201 0.0173498L13 0.711206ZM12.6574 1.06681L13.3775 1.76066L12.6574 1.06681ZM7.18527 6.74599L6.46516 6.05213L5.7966 6.74599L6.46516 7.43984L7.18527 6.74599ZM12.1833 11.9332L12.9034 11.2393L12.9034 11.2393L12.1833 11.9332ZM12.526 12.2888L13.2461 12.9827L13.9146 12.2888L13.2461 11.5949L12.526 12.2888ZM11.8407 13L11.1206 13.6939L11.8407 14.4412L12.5608 13.6939L11.8407 13ZM11.4981 12.6444L12.2182 11.9505L12.2182 11.9505L11.4981 12.6444ZM6.5 7.45719L7.22011 6.76333L6.5 6.01597L5.77989 6.76333L6.5 7.45719ZM1.50194 12.6444L0.781826 11.9505L0.781825 11.9505L1.50194 12.6444ZM1.1593 13L0.43919 13.6939L1.1593 14.4412L1.87942 13.6939L1.1593 13ZM0.474031 12.2888L-0.246083 11.5949L-0.914637 12.2888L-0.246082 12.9827L0.474031 12.2888ZM0.816668 11.9332L0.0965536 11.2393L0.0965532 11.2393L0.816668 11.9332ZM-0.377478 1.76066L5.09461 7.43984L6.53484 6.05213L1.06275 0.372953L-0.377478 1.76066ZM-0.720114 1.40506L-0.377478 1.76066L1.06275 0.372953L0.720114 0.0173499L-0.720114 1.40506ZM-0.0348418 -0.693856L-0.720114 0.0173498L0.720114 1.40506L1.40539 0.693856L-0.0348418 -0.693856ZM1.74802 -0.338253L1.40539 -0.693856L-0.0348418 0.693856L0.307794 1.04946L1.74802 -0.338253ZM7.22011 5.34092L1.74802 -0.338253L0.307794 1.04946L5.77989 6.72864L7.22011 5.34092ZM7.22011 6.72864L12.6922 1.04946L11.252 -0.338253L5.77989 5.34092L7.22011 6.72864ZM12.6922 1.04946L13.0348 0.693856L11.5946 -0.693856L11.252 -0.338253L12.6922 1.04946ZM11.5946 0.693856L12.2799 1.40506L13.7201 0.0173498L13.0348 -0.693856L11.5946 0.693856ZM12.2799 0.0173499L11.9373 0.372953L13.3775 1.76066L13.7201 1.40506L12.2799 0.0173499ZM11.9373 0.372953L6.46516 6.05213L7.90539 7.43984L13.3775 1.76066L11.9373 0.372953ZM12.9034 11.2393L7.90539 6.05213L6.46516 7.43984L11.4632 12.627L12.9034 11.2393ZM13.2461 11.5949L12.9034 11.2393L11.4632 12.627L11.8059 12.9826L13.2461 11.5949ZM12.5608 13.6939L13.2461 12.9827L11.8059 11.5949L11.1206 12.3061L12.5608 13.6939ZM10.7779 13.3383L11.1206 13.6939L12.5608 12.3061L12.2182 11.9505L10.7779 13.3383ZM5.77989 8.15105L10.7779 13.3383L12.2182 11.9505L7.22011 6.76333L5.77989 8.15105ZM5.77989 6.76333L0.781826 11.9505L2.22205 13.3383L7.22011 8.15105L5.77989 6.76333ZM0.781825 11.9505L0.439189 12.3061L1.87942 13.6939L2.22205 13.3383L0.781825 11.9505ZM1.87942 12.3061L1.19415 11.5949L-0.246082 12.9827L0.43919 13.6939L1.87942 12.3061ZM1.19415 12.9826L1.53678 12.627L0.0965532 11.2393L-0.246083 11.5949L1.19415 12.9826ZM1.53678 12.627L6.53484 7.43984L5.09461 6.05213L0.0965536 11.2393L1.53678 12.627Z" fill="#979797" mask="url(#path-1-inside-1)"/>
</g>
</svg>
