<svg width="18" height="14" viewBox="0 0 18 14" fill="none" xmlns="http://www.w3.org/2000/svg">
<g id="megaphone">
<path id="Shape" d="M13.6706 2.15056C13.4646 1.94472 13.1308 1.94476 12.9248 2.15074C12.7189 2.35672 12.719 2.6906 12.925 2.89654C13.7099 3.68112 14.1422 4.7227 14.1422 5.82945C14.1422 6.93613 13.7099 7.97774 12.925 8.76243C12.719 8.96831 12.7189 9.30222 12.9248 9.5082C13.1306 9.71415 13.4646 9.71429 13.6706 9.50834C14.6549 8.52449 15.1969 7.21798 15.1969 5.82945C15.1969 4.44088 14.6548 3.13437 13.6706 2.15056Z" fill="#079FC2"/>
<path id="Shape_2" d="M15.6546 0.166814C15.4487 -0.0391309 15.1148 -0.039166 14.9088 0.166709C14.7029 0.372654 14.7028 0.706533 14.9087 0.912514C16.222 2.22616 16.9453 3.97237 16.9453 5.82947C16.9453 7.6866 16.222 9.43281 14.9087 10.7464C14.7028 10.9524 14.7029 11.2863 14.9088 11.4922C15.1149 11.6982 15.4487 11.698 15.6546 11.4921C17.1671 9.97927 18 7.96827 18 5.82947C18 3.6907 17.1671 1.67969 15.6546 0.166814Z" fill="#079FC2"/>
<path id="Shape_3" fill-rule="evenodd" clip-rule="evenodd" d="M9.49908 1.99598V3.77352C10.4048 4.00811 11.0758 4.83249 11.0758 5.81065C11.0758 6.7888 10.4049 7.61314 9.49904 7.84777V9.62531C9.49904 9.8006 9.41193 9.96443 9.26663 10.0625C9.12407 10.1586 8.93985 10.1812 8.77423 10.1143L4.62952 8.44033H4.37295L2.47409 12.6834C2.37245 12.9106 2.12572 13.0358 1.88262 12.9837C1.6393 12.9318 1.46542 12.7168 1.46542 12.468V8.4403H0.527344C0.236109 8.4403 0 8.20419 0 7.91295V3.7083C0 3.41707 0.236109 3.18096 0.527344 3.18096H4.62955L8.77426 1.50699C8.93679 1.44139 9.12132 1.46073 9.26666 1.55881C9.412 1.65683 9.49908 1.82066 9.49908 1.99598ZM2.52011 8.4403V9.99867L3.2175 8.4403H2.52011ZM4.9295 7.42404C4.86675 7.39865 4.79971 7.38564 4.73203 7.38564H1.05469V4.23568H4.732C4.79967 4.23568 4.86671 4.22267 4.92947 4.19729L8.44436 2.77768L8.44439 8.84364L4.9295 7.42404ZM9.49904 4.90358V6.71768C9.81102 6.5356 10.0211 6.19719 10.0211 5.81065C10.0211 5.4241 9.81102 5.08569 9.49904 4.90358Z" fill="#079FC2"/>
</g>
</svg>
