<svg width="15" height="14" viewBox="0 0 15 14" fill="none" xmlns="http://www.w3.org/2000/svg">
<g id="percentage">
<path id="Shape" d="M14.3826 0.195173C14.1261 -0.0616397 13.7099 -0.0616397 13.4535 0.195173L0.772743 12.8759C0.51604 13.1325 0.51604 13.5483 0.772743 13.8049C0.90104 13.9333 1.06926 13.9975 1.23737 13.9975C1.40548 13.9975 1.5737 13.9333 1.70188 13.8049L14.3826 1.1242C14.6393 0.86761 14.6393 0.451767 14.3826 0.195173Z" fill="#079FC2"/>
<path id="Shape_2" fill-rule="evenodd" clip-rule="evenodd" d="M0.57576 3.12819C0.57576 1.40729 1.97598 0.00695801 3.69688 0.00695801C5.41779 0.00695801 6.81801 1.40718 6.81801 3.12808C6.81801 4.84899 5.4179 6.24932 3.69688 6.24932C1.97598 6.24932 0.57576 4.8491 0.57576 3.12819ZM1.8899 3.12808C1.8899 4.12438 2.70048 4.93507 3.69689 4.93507C4.69329 4.93507 5.50387 4.12438 5.50387 3.12808C5.50387 2.13179 4.69329 1.3211 3.69689 1.3211C2.70059 1.3211 1.8899 2.13179 1.8899 3.12808Z" fill="#079FC2"/>
<path id="Shape_3" fill-rule="evenodd" clip-rule="evenodd" d="M8.33351 10.8758C8.33351 9.15486 9.73373 7.75464 11.4546 7.75464C13.1755 7.75464 14.5758 9.15475 14.5758 10.8758C14.5758 12.5968 13.1755 13.9969 11.4546 13.9969C9.73373 13.9969 8.33351 12.5967 8.33351 10.8758ZM9.64765 10.8757C9.64765 11.872 10.4582 12.6826 11.4546 12.6826C12.451 12.6826 13.2616 11.872 13.2616 10.8757C13.2616 9.87936 12.4509 9.06867 11.4546 9.06867C10.4583 9.06867 9.64765 9.87936 9.64765 10.8757Z" fill="#079FC2"/>
</g>
</svg>
