<svg width="19" height="18" viewBox="0 0 19 18" fill="none" xmlns="http://www.w3.org/2000/svg">
<g id="ruble">
<path id="Shape" fill-rule="evenodd" clip-rule="evenodd" d="M0.615387 9C0.615387 4.03762 4.65301 0 9.61539 0C14.5778 0 18.6154 4.03762 18.6154 9C18.6154 13.9624 14.5778 18 9.61539 18C4.65301 18 0.615387 13.9624 0.615387 9ZM1.74039 9C1.74039 13.3425 5.27401 16.875 9.61539 16.875C13.9568 16.875 17.4904 13.3425 17.4904 9C17.4904 4.6575 13.9568 1.125 9.61539 1.125C5.27401 1.125 1.74039 4.6575 1.74039 9Z" fill="#079FC2"/>
<path id="Shape_2" fill-rule="evenodd" clip-rule="evenodd" d="M9.05289 4.5H11.8654C13.1063 4.5 14.1154 5.50912 14.1154 6.75C14.1154 7.99088 13.1063 9 11.8654 9H9.61539V10.125H11.3029C11.6134 10.125 11.8654 10.377 11.8654 10.6875C11.8654 10.998 11.6134 11.25 11.3029 11.25H9.61539V12.9375C9.61539 13.248 9.36339 13.5 9.05289 13.5C8.74239 13.5 8.49039 13.248 8.49039 12.9375V11.25H6.80289C6.49239 11.25 6.24039 10.998 6.24039 10.6875C6.24039 10.377 6.49239 10.125 6.80289 10.125H8.49039V5.0625C8.49039 4.752 8.74239 4.5 9.05289 4.5ZM9.61539 7.875H11.8654C12.4864 7.875 12.9904 7.36987 12.9904 6.75C12.9904 6.13013 12.4864 5.625 11.8654 5.625H9.61539V7.875Z" fill="#079FC2"/>
</g>
</svg>
