<svg width="28" height="32" viewBox="0 0 28 32" fill="none" xmlns="http://www.w3.org/2000/svg">
<g id="up">
<path id="Shape" opacity="0.504576" d="M13.7731 31.987C14.3935 31.987 14.8963 31.4841 14.8963 30.8702V10.4751L19.9641 15.5429C20.1796 15.7584 20.4669 15.8694 20.7543 15.8694C21.0416 15.8694 21.329 15.7584 21.5445 15.5429C21.982 15.1053 21.982 14.3935 21.5445 13.9559L14.5633 6.97471C14.1257 6.53716 13.4139 6.53716 12.9763 6.97471L6.00163 13.9559C5.56407 14.3935 5.56407 15.1053 6.00163 15.5429C6.43918 15.9804 7.15101 15.9804 7.58856 15.5429L12.6563 10.4751V30.8702C12.6563 31.4841 13.1526 31.987 13.7731 31.987Z" fill="#20262E"/>
<path id="Shape_2" opacity="0.504576" d="M27.5461 1.12327C27.5461 0.502857 27.0433 0 26.4294 0H1.11673C0.496327 0 0 0.502857 0 1.12327C0 1.74367 0.502857 2.24653 1.11673 2.24653H26.4294C27.0498 2.24 27.5461 1.73714 27.5461 1.12327Z" fill="#20262E"/>
</g>
</svg>
